# xmcd
#
# Track frame offsets:
#	150
#	2042
#	11820
#	21847
#	39647
#	52275
#	64960
#	83865
#	99052
#	110317
#	122392
#	125597
#	141737
#
# Disc length: 2190 seconds
#
# Revision: 1
# Processed by: cddbd v1.4PL0 Copyright (c) Steve Scherf et al.
# Submitted via: audiograbber 1.82.00
#
DISCID=b1088c0d
DTITLE=Blue Flannel - XL
DYEAR=1900
DGENRE=
TTITLE0=Intro
TTITLE1=Unfair Comparison
TTITLE2=No One
TTITLE3=Havin' A Bad Day
TTITLE4=You Bore Me
TTITLE5=I Can't Stand Losing You
TTITLE6=Out Of Habit
TTITLE7=Go Away
TTITLE8=Sleepy Boy
TTITLE9=At The Same Time
TTITLE10=Animal Song
TTITLE11=Kill Me
TTITLE12=Not My Type
EXTD=
EXTT0=
EXTT1=
EXTT2=
EXTT3=
EXTT4=
EXTT5=
EXTT6=
EXTT7=
EXTT8=
EXTT9=
EXTT10=
EXTT11=
EXTT12=
PLAYORDER=
